<?xml version="1.0" encoding="utf-8"?>
<!-- Generator: Adobe Illustrator 27.9.3, SVG Export Plug-In . SVG Version: 9.03 Build 53313)  -->
<svg version="1.0" id="Layer_1" xmlns="http://www.w3.org/2000/svg" xmlns:xlink="http://www.w3.org/1999/xlink" x="0px" y="0px"
	 viewBox="0 0 2500 2500" style="enable-background:new 0 0 2500 2500;" xml:space="preserve">
<style type="text/css">
	.st0{fill:#FFFFFF;fill-opacity:0;}
	.st1{fill-rule:evenodd;clip-rule:evenodd;fill:#327394;}
</style>
<path class="st0" d="M0,2500h2500V0H0V2500z"/>
<path class="st1" d="M1244.4,1347.3l-20.6-86.5l-49.1,86.5h-58.7l-49.7-86.5l-20.8,86.5h-61.7l40.5-134.1h68.2l52.8,91.8l52.8-91.8
	h67.6l40.6,134.1H1244.4L1244.4,1347.3z M782.3,1213.2l-91,134.1h61.4l13.8-23.1h95.2l13.8,23.1h67.8l-91.1-134.1H782.3z
	 M782.1,1298.1l32.1-53.8l32.1,53.8H782.1z M1969.5,1213.2l-91.1,134.1h61.5l13.8-23.1h95.3l13.8,23.1h67.8l-91.1-134.1
	L1969.5,1213.2L1969.5,1213.2z M1969.3,1298.1l32.1-53.8l32.1,53.8H1969.3z M2319,1347.3l-73.4-63.4v63.4h-62.8v-134.1h62.8v58.8
	l73.3-58.8h76.2l-84.6,64.2l90.3,69.9H2319L2319,1347.3z M1764.7,1347.3h71l-47-51.3c26-6.5,36.9-21.9,36.9-39.4
	c0-20.6-14.5-31.7-35.3-37.3c-21.5-5.8-50.1-6.1-77.2-6.1H1617v134.1h62v-40.3h53.8L1764.7,1347.3L1764.7,1347.3z M1679,1239.8h39.3
	c32,0,45.1,6.2,45.1,19.8c0,10.9-8.7,17.6-19.5,20.1c-8,1.8-15.3,2.2-27.9,2.2h-37L1679,1239.8L1679,1239.8z M1478.9,1244v103.4
	h-63.1V1244h-81.1l6.9-30.8h219.5l-6.8,30.8H1478.9z M351.1,1329c48,19.9,97.7,38.1,140,50.3c51-101.4,143.2-181.7,313.1-255.4v-3.3
	C586,1180.3,449.4,1223.1,351.1,1329L351.1,1329z M448.3,1131.7c-48.1-2.3-299.7-8.7-411.6,39.8c33.1,19.7,66.8,38.5,100.9,56.5
	c110.9-51.9,254.8-70.7,387.1-77.9v-3.4C499,1143.7,470.6,1138.2,448.3,1131.7z"/>
<path class="st1" d="M561.4,1152.1c-99.3,9.9-275,38.7-375.2,101c37.1,18.7,74.6,36.5,112.5,53.4c105.4-89.9,244.9-129.7,387-157.7
	v-3.3C649.7,1149.8,595.1,1152.4,561.4,1152.1z M2416.6,1236.2c0-12.1,9.1-21.3,20.8-21.3c11.5,0,20.7,9.1,20.7,21.3
	c0,12.2-9.1,21.3-20.7,21.3C2425.7,1257.6,2416.6,1248.5,2416.6,1236.2z M2437.4,1261.8c13.9,0,25.8-10.8,25.8-25.6
	c0-14.7-11.9-25.5-25.8-25.5c-14.1,0-26,10.8-26,25.5C2411.5,1251,2423.3,1261.8,2437.4,1261.8z M2432,1238.2h5.1l7.8,12.8h5
	l-8.4-13c4.3-0.6,7.6-2.8,7.6-8.1c0-5.8-3.5-8.4-10.4-8.4h-11.2v29.5h4.4v-25.7h6.1c3.1,0,6.4,0.7,6.4,4.3c0,4.6-3.3,4.8-7.1,4.8
	h-5.4L2432,1238.2L2432,1238.2z"/>
</svg>
