<?xml version="1.0" encoding="UTF-8"?>
<svg id="Layer_1" data-name="Layer 1" xmlns="http://www.w3.org/2000/svg" viewBox="0 0 1011 1322.31">
  <defs>
    <style>
      .cls-1 {
        fill: #922936;
      }

      .cls-1, .cls-2, .cls-3, .cls-4, .cls-5, .cls-6, .cls-7, .cls-8, .cls-9, .cls-10, .cls-11, .cls-12, .cls-13, .cls-14, .cls-15 {
        stroke-width: 0px;
      }

      .cls-16 {
        letter-spacing: -.01em;
      }

      .cls-2 {
        fill: #8f2936;
      }

      .cls-17 {
        letter-spacing: 0em;
      }

      .cls-3 {
        fill: #912d3a;
      }

      .cls-4 {
        fill: #8d2331;
      }

      .cls-18 {
        font-family: MyriadPro-Regular, 'Myriad Pro';
        font-size: 12px;
      }

      .cls-5 {
        fill: #8c222f;
      }

      .cls-19 {
        letter-spacing: 0em;
      }

      .cls-6 {
        fill: #8d2634;
      }

      .cls-7 {
        fill: #902836;
      }

      .cls-8 {
        fill: #8f2634;
      }

      .cls-20 {
        letter-spacing: 0em;
      }

      .cls-9 {
        fill: #8f2735;
      }

      .cls-10 {
        fill: #c0848b;
      }

      .cls-11 {
        fill: #0f0e0e;
      }

      .cls-21 {
        letter-spacing: -.02em;
      }

      .cls-22 {
        letter-spacing: 0em;
      }

      .cls-12 {
        fill: #8b2230;
      }

      .cls-23 {
        letter-spacing: 0em;
      }

      .cls-24 {
        letter-spacing: -.01em;
      }

      .cls-13 {
        fill: #922a38;
      }

      .cls-25 {
        letter-spacing: -.01em;
      }

      .cls-14 {
        fill: #a24752;
      }

      .cls-15 {
        fill: #110e0f;
      }
    </style>
  </defs>
  <g>
    <path class="cls-11" d="m494.66,1256.41c-.44-.39-.86-.66-1.15-1.04-2.83-3.64-5.48-7.38-7.7-11.39-9.86-17.84-18.56-36.17-26.47-54.84-8.06-19-15.34-38.27-22.46-57.59-3.35-9.08-6.72-18.16-9.98-27.28-1.73-4.84-3.23-9.76-4.83-14.64-.31-.93-.57-1.87-.91-2.79-.36-.99-1.14-1.63-2.2-1.9-1.12-.28-2.27-.45-3.41-.68-19.37-3.83-38.25-9.27-56.72-15.91-29.58-10.64-58.41-22.87-86.21-37.19-17.48-9.01-34.35-18.93-50.49-29.95-8.59-5.87-16.85-12.13-24.68-18.88-.86-.74-1.76-1.43-2.65-2.13-.25-.2-.82-.05-.99.26-.4.76-.82,1.52-1.19,2.29-2.63,5.56-5.26,11.12-7.87,16.69-.27.57-.5,1.13-1.32,1.38-3.62-1.73-6.97-3.97-9.95-6.7-6.33-5.8-11.87-12.21-16.85-19.07-6.14-8.47-11.34-17.44-16.06-26.67-2.87-5.6-5.39-11.33-7.78-17.12-.51-1.24-.84-2.56-1.82-3.57-.78.16-.96.78-1.24,1.27-1.86,3.2-3.69,6.43-5.54,9.64-.36.62-.59,1.35-1.37,1.7-1.19-.24-2.06-1-2.93-1.71-1.17-.95-2.32-1.95-3.33-3.05-.93-1-1.72-2.13-2.5-3.25-8.33-11.91-14.22-24.83-17.83-38.67-2.1-8.06-3.4-16.24-4.06-24.52-.56-6.94-.38-13.88-.34-20.83.01-2.43-.03-4.86-.05-7.29,0-.31-.2-.42-.54-.34-.11.03-.25.05-.3.12-.28.41-.56.82-.79,1.26-.82,1.52-1.61,3.05-2.42,4.58-1.9,3.59-3.81,7.19-5.72,10.78-.23.43-.97.58-1.33.24-1.29-1.19-2.66-2.33-3.81-3.63-4-4.55-7.05-9.57-8.75-15.32-1.5-5.06-2.56-10.17-3.06-15.41-.58-5.97-.5-11.92-.08-17.89.51-7.43,1.63-14.78,3.03-22.1.83-4.31,1.64-8.63,2.42-12.95.17-.96.22-1.94.31-2.91.03-.36-.47-.72-.77-.55-1.32.76-2.63,1.55-3.95,2.3-1.1.63-2.21,1.24-3.34,1.84-.43.23-1.05.03-1.38-.36-.84-.96-1.39-2.05-1.55-3.29-.1-.72-.16-1.46-.18-2.19-.22-7.31-.44-14.62-.65-21.93-.05-1.95-.07-3.9-.07-5.85-.02-21.36,4.43-41.86,13.32-61.51,5.09-11.26,11.68-21.71,19.52-31.47,1.01-1.26,2.02-2.53,3.02-3.8.3-.38.17-1.04-.26-1.28-1.66-.93-3.32-1.88-5.01-2.76-1.24-.64-2.52-1.23-3.83-1.76-2.33-.95-3.29-2.62-3.1-4.95,0-.12,0-.24,0-.37,0-4.63,0-9.26,0-13.89,0-.61,0-1.22.1-1.82.19-1.04.86-1.79,1.92-2.11,1.1-.34,2.25-.56,3.38-.81,6.91-1.54,13.82-3.08,20.73-4.63,1-.23,1.98-.55,2.96-.84.46-.13.67-.8.38-1.21-.51-.7-1.02-1.4-1.57-2.08-4.16-5.14-8.15-10.38-11.95-15.76-11.5-16.27-21.15-33.47-29.42-51.38-4.49-9.72-8.44-19.63-12.3-29.58-.89-2.29-1.74-4.59-2.66-6.86-1.14-2.81-1.38-5.63-.78-8.6,1.29-6.4,3.65-12.43,6.86-18.17,4.18-7.48,9.38-14.29,15.38-20.56,5.47-5.72,11.53-10.84,17.92-15.62.5-.37,1.05-.67,1.57-1,1.09.9,1.43,2.12,1.98,3.2,4.44,8.66,8.83,17.35,13.24,26.02,1.12,2.2,2.23,4.39,3.4,6.57.15.28.57.42.86.63.71-.7.84-1.55,1-2.36,1.34-6.7,2.67-13.4,4-20.11.59-2.99,1.15-5.99,1.75-8.98.14-.71.4-1.41.64-2.11.17-.51.62-.84,1.13-.9,1.02-.12,2.06-.17,3.09-.17,10.34.02,20.26,1.97,29.8,5.69,7.56,2.95,14.56,6.84,21.23,11.26,8.49,5.63,16.21,12.1,23.59,18.95,9.04,8.39,17.42,17.35,25.7,26.39.93,1.01,1.87,2.02,2.83,3.01.86.89,1.97,1.14,3.18.88.75-.16,1.47-.44,2.19-.7,9.97-3.7,19.93-7.42,29.91-11.08,2.2-.81,4.16-1.91,5.99-3.29,4.65-3.5,9.4-6.87,13.95-10.48,2.63-2.09,5.46-2.94,8.86-3.01,10.47-.2,20.93-.61,31.4-.94.65-.02,1.29-.03,1.94-.07,1.98-.13,3.79-.7,5.39-1.82.73-.51,1.45-1.02,2.18-1.52,4.81-3.29,9.65-6.55,14.44-9.87,3.41-2.37,3.74-2.14,6.88-.36,5.53,3.14,11.05,6.31,16.57,9.47.33.19.66.39.98.59,1.89,1.18,3.96,1.74,6.22,1.73,1.94-.01,3.88-.03,5.82-.04,15.9-.09,31.81-.15,47.71-.27,14.09-.1,28.18-.29,42.28-.4,12.93-.1,25.86-.17,38.79-.23,13.45-.07,26.89-.1,40.34-.17,9.05-.05,18.1-.11,27.15-.23,2.71-.04,5.42-.26,8.12-.48,2.32-.19,4.62-.48,6.93-.73,5.52-.61,11.03-1.26,16.56-1.81,1.92-.19,3.87-.19,5.81-.2,7.63-.01,15.26.01,22.89.01,1.42,0,2.85,0,4.27-.06,6.79-.25,13.4.78,19.9,2.48,11.82,3.09,23.62,6.22,35.43,9.32,2.87.75,5.64,1.76,8.33,2.94,2.7,1.17,5.42,2.28,8.24,3.17,2.71.85,5.26,2.07,7.57,3.63,2.41,1.63,4.77,3.34,7.07,5.11,5.61,4.32,11.13,8.73,16.75,13.03,3.81,2.92,7.81,5.62,11.99,8.06,5.77,3.38,10.77,7.6,15.02,12.56,4.18,4.89,9.07,9,14.53,12.54,2.34,1.52,4.71,3,7.1,4.45,1.19.72,2.45,1.38,3.85,1.68,2.34.5,4.63.38,6.8-.65,1.15-.55,2.29-1.12,3.39-1.75,18.3-10.55,36.58-21.11,54.88-31.65,5.84-3.37,11.71-6.69,17.57-10.03.88-.5,1.76-1.02,2.63-1.55,1.54-.97,2.58-2.36,3.59-3.79,4.23-5.98,8.39-12.01,12.74-17.91,8.7-11.81,17.51-23.55,26.28-35.31.37-.49.84-.92,1.29-1.35.54-.52,1.27-.4,1.56.25,1.5,3.37,2.99,6.74,4.48,10.11,7.06,16.09,14.11,32.18,21.17,48.27.3.68.58,1.36.89,2.03.43.92.5,1.86.41,2.86-.45,4.86-.84,9.72-1.31,14.57-.24,2.55-.53,5.09-.9,7.63-1.18,8.09-2.17,16.2-3.05,24.32-.37,3.39-.88,6.77-1.21,10.17-.21,2.24-.99,4.25-2.17,6.18-2.58,4.22-5.08,8.48-7.62,12.73-6.91,11.57-13.81,23.14-20.75,34.69-1.03,1.72-1.76,3.51-2.21,5.42-1.22,5.11-2.45,10.21-3.68,15.32-.06.24-.09.48-.16.72-.72,2.55-.56,5.03.47,7.52.89,2.15,1.55,4.39,2.33,6.58.65,1.82.54,3.57-.41,5.3-1.98,3.56-3.82,7.19-5.87,10.71-3.72,6.41-7.58,12.75-11.32,19.15-1.16,1.98-2.67,3.52-4.75,4.67-3.79,2.1-7.49,4.32-11.23,6.5-.88.51-1.76,1.02-2.6,1.59-.97.65-1.7,1.53-2.1,2.58-1.3,3.44-2.54,6.9-3.78,10.36-.12.34-.25.73-.19,1.07.07.46.21.98.52,1.32.41.45.97.8,1.53,1.09,1.94.97,3.9,1.9,5.86,2.83,12.93,6.1,25.87,12.19,38.8,18.29,1.27.6,2.49,1.28,3.71,1.95.5.28.69,1.15.39,1.64-.72,1.15-1.44,2.31-2.22,3.43-7.58,10.9-15.16,21.81-22.76,32.7-4.61,6.62-9.26,13.22-13.88,19.83-.57.81-1.19,1.6-1.68,2.45-.82,1.44-1.14,2.96-.51,4.58.45,1.14.81,2.31,1.24,3.46,2.08,5.63,4.16,11.27,6.27,16.89.78,2.08,1.27,4.2,1.4,6.41.44,7.42.95,14.84,1.47,22.26.37,5.35.81,10.69,1.21,16.04.03.36.04.73.06,1.1.06,1.16-.34,2.16-1.24,2.96-.66.59-1.33,1.15-2.02,1.7-11.86,9.42-23.73,18.85-35.6,28.26-.89.7-1.8,1.38-2.73,2.04-1.76,1.23-2.67,2.93-3.09,4.91-.13.59-.15,1.21-.19,1.82-.22,3.65-.43,7.3-.62,10.95-.25,4.75-.49,9.49-.7,14.24-.34,7.55-.66,15.1-.99,22.65-.02.49-.01.98-.04,1.46-.17,2.46-1.31,4.43-3.41,5.89-.73.5-1.5.95-2.27,1.4-16.96,10.03-33.93,20.07-50.89,30.1-.99.58-1.97,1.17-2.96,1.74-2.4,1.37-4.11,3.27-5.19,5.73-1.39,3.15-2.88,6.25-4.34,9.37-6.66,14.26-13.32,28.53-19.99,42.79-.52,1.11-1.1,2.2-1.73,3.25-.34.57-1,.82-1.67.69-1.14-.21-2.26-.49-3.37-.81-17.42-4.94-34.85-9.89-52.27-14.83-1.11-.32-2.22-.66-3.35-.89-1.76-.37-3.33.05-4.65,1.23-.47.42-.91.87-1.32,1.34-2.91,3.28-6.01,6.39-9.34,9.28-4.91,4.26-8.8,9.18-12.01,14.69-4.48,7.68-9.2,15.24-13.82,22.86-.45.74-.9,1.48-1.38,2.2-.91,1.35-1.65,1.64-3.23,1.29-.88-.2-1.76-.4-2.63-.63-15.64-4.18-31.28-8.38-46.93-12.55-1.61-.43-3.25-.78-4.9-1.06-1.92-.33-3.58.25-4.92,1.58-.89.88-1.76,1.79-2.57,2.73-9.79,11.34-19.55,22.71-29.38,34.03-1.91,2.2-3.31,4.62-4.47,7.22-8.41,18.85-16.88,37.69-25.28,56.55-4.56,10.23-9.93,20.08-15.45,29.87-3.94,6.99-7.93,13.96-11.77,21-2.42,4.44-4.6,8.99-6.85,13.51-1.15,2.32-2.48,4.54-4.1,6.75Zm409.99-597.54c.71.13,1.23-.1,1.55-.72.83-.77,1.7-1.49,2.05-2.61.26-.82.05-1.8-.64-2.33-.4-.3-.83-.58-1.28-.81-1.24-.66-2.51-1.26-3.73-1.93-3.9-2.15-7.79-4.32-11.69-6.48-5.34-2.96-10.69-5.92-16.04-8.89-4.25-2.36-8.77-4.13-13.54-5.32-3.24-.81-6.5-1.58-9.77-2.29-2.23-.49-4.07-1.49-5.45-3.22-.54-.68-1.09-1.36-1.63-2.05-17.82-22.58-35.65-45.16-53.48-67.74-1.47-1.86-2.92-3.72-4.44-5.54-1.37-1.64-2.89-3.16-4.89-4.1-1.67-.78-2.94-1.94-4.16-3.21-3.54-3.72-7.17-7.37-10.65-11.13-2.66-2.87-5.66-5.31-9.03-7.42-3.55-2.22-7.04-4.55-10.47-6.93-7.5-5.2-14.76-10.69-21.6-16.66-2.19-1.92-4.59-3.54-7.34-4.71-2.71-1.15-5.36-2.41-8.06-3.58-3.87-1.68-7.85-3.11-11.96-4.19-12.68-3.32-25.36-6.67-38.04-10.02-3.52-.93-7.1-1.23-10.74-1.21-7.89.04-15.77.05-23.66.06-4.52,0-9.05-.18-13.56.23-3.47.31-6.94.66-10.41.99-1.67.16-3.34.31-5.01.47-.39.04-.77.07-1.15.12-.67.1-1.44.85-1.49,1.51-.16,2.55-.25,5.11,0,7.67.17,1.7.36,3.4.42,5.1.09,2.34.67,4.56,1.49,6.76,3.52,9.54,6.98,19.11,10.46,28.66.25.69.5,1.38.77,2.07.57,1.43,1.58,2.5,3.02,3.19.8.39,1.63.74,2.45,1.08,9.12,3.73,18.24,7.44,27.36,11.18,8.28,3.4,16.56,6.82,24.83,10.25.82.34,1.62.74,2.41,1.15.49.25.78,1.05.64,1.61-.06.24-.1.48-.21.7-1.03,2.04-3.48,3.17-5.78,2.66-.75-.17-1.51-.32-2.26-.53-12.48-3.53-24.97-7.06-37.44-10.63-2.5-.72-5.02-1.08-7.63-1.07-5.95.03-11.89,0-17.84.01-.77,0-1.55.04-2.32.07-1.05.05-2.03.32-2.93.85-.55.32-1.11.62-1.66.94-5.4,3.11-10.8,6.23-16.2,9.35-.55.32-1.11.62-1.64.98-1.08.72-1.89,1.65-2.29,2.87-.19.58-.38,1.16-.54,1.75-.78,2.95-1.55,5.91-2.33,8.86-1.37,5.2-2.76,10.39-4.11,15.6-.65,2.54-1.83,4.77-3.68,6.74-3.84,4.12-7.59,8.32-11.37,12.48-.59.65-1.18,1.29-1.73,1.97-.87,1.08-1.53,2.25-1.78,3.61-.14.72-.37,1.42-.52,2.14-2.34,11.48-4.71,22.95-6.97,34.44-.5,2.52-1.67,4.54-3.67,6.24-3.46,2.93-6.85,5.94-10.27,8.92-.66.58-1.37,1.13-1.97,1.76-.89.93-1.4,2.04-1.32,3.33.07,1.22.15,2.43.24,3.65.45,5.95.91,11.91,1.36,17.86.15,1.94.31,3.89.46,5.83.35,4.37.69,8.75,1.05,13.12.09,1.09.04,2.23.36,3.26,1.02,3.31.28,6.25-1.81,8.98-.23.3-.41.62-.61.94-1.96,3.15-3.9,6.31-5.87,9.46-1.01,1.61-1.53,3.31-1.57,5.2-.1,4.14-.38,8.28-.45,12.42-.21,12.31-.36,24.61-.52,36.92-.07,5.24-.08,10.48-.11,15.72,0,.97-.01,1.95.11,2.92.23,1.82.82,3.55,1.7,5.21,2.3,4.36,4.57,8.74,6.79,13.13,3.79,7.49,6.92,15.21,9.34,23.19,1.71,5.65,2.9,11.37,2.67,17.28-.09,2.32-.02,4.63.16,6.94.12,1.46.23,2.92.35,4.37.47,5.51.07,10.94-1.36,16.32-1.45,5.43-2.81,10.88-4.16,16.33-.7,2.85-1.26,5.72-1.95,8.57-.83,3.41-2.31,6.47-5.65,8.4-.11.06-.21.14-.31.22-.39.31-.51.97-.22,1.31.41.47.79.96,1.25,1.38,2.12,1.97,4.24,3.93,6.4,5.86,3.57,3.18,7.2,6.31,10.76,9.5,2.43,2.18,4.79,4.44,7.18,6.68.35.33.71.69.58,1.34-1.09.94-2.41,1.7-3.72,2.47-1.69.99-3.51,1.51-5.51,1.47-1.03-.02-2.07.02-3.1.01-7.63-.03-15.26-.06-22.88-.1-4.6-.02-4.5-.15-4.05,4.24.06.61.17,1.21.24,1.81.21,1.94.5,3.87.6,5.82.79,14.98.85,29.97,1.09,44.95.09,5.36.03,10.72.12,16.09.18,10.11.48,20.23.62,30.34.14,9.5.12,19.01.22,28.52.1,8.9.27,17.79.42,26.69.09,5.6.26,11.21.29,16.81.05,8.65,0,17.31.02,25.96,0,1.58.12,3.16.23,4.74.03.48.23.94.36,1.41.14.49.87.73,1.19.4.69-.72,1.4-1.43,2.05-2.19,16.44-19.12,32.88-38.25,49.31-57.38.65-.76,1.32-1.51,1.89-2.32,1-1.43,1.74-2.97,1.96-4.72.39-3.14.88-6.28,1.28-9.42.34-2.66.71-5.32.91-7.99.48-6.32.77-12.65.86-18.99.05-3.78.23-7.55.42-11.33.31-6.21.7-12.41,1.01-18.62.22-4.38.38-8.77.54-13.15.08-2.19.13-4.39.14-6.58.01-1.65-.81-2.75-2.51-3.28-1.35-.43-2.66-.93-3.98-1.44-1.79-.7-3.57-1.42-5.33-2.17-.71-.3-1.17-1.11-1-1.82.58-2.4.47-4.84.5-7.28.01-1.1.03-2.19.12-3.29.08-.91.63-1.58,1.46-2.04.45-.24.92-.45,1.39-.64,7.52-2.9,15.05-5.81,22.58-8.69.71-.27,1.47-.44,2.21-.64.42-.11,1.05.33,1.14.78.09.48.22.96.24,1.44.06,1.46.06,2.92.1,4.39.16,6.94.3,13.89.51,20.83.18,6.09.44,12.18.66,18.27.06,1.58.1,3.17.16,4.75.46,12.67,1.27,25.32,1.12,38,0,.73.06,1.46.13,2.18.05.55.7,1.15,1.28,1.21,1.54.15,3.08.3,4.63.42,4.12.31,8.25.63,12.37.9,5.16.33,10.32.6,15.48.9.39.02.78.05,1.16.11,2.69.44,5.4.51,8.11.59,3.36.1,6.72.35,10.02.93,2.09.37,3.83-.15,5.41-1.35.7-.53,1.32-1.17,1.95-1.78,8.63-8.41,17.28-16.8,25.86-25.26,4.47-4.4,9.25-8.52,13.46-13.15,1.18-1.3,2.77-1.72,4.54-1.59.13,0,.25.04.38.06,7.17.91,14.34,1.81,21.51,2.72,2.18.28,4.35.56,6.53.83,3.2.4,6.4.8,9.6,1.21,2.94.38,5.88.79,8.83,1.15,3.72.45,7.44.86,11.16,1.26.76.08,1.55.06,2.32,0,1.09-.08,2-.58,2.55-1.47.64-1.05,1.23-2.14,1.75-3.25,4.51-9.57,9-19.15,13.49-28.73,1.57-3.34,3.18-6.66,4.68-10.03.94-2.1,2.31-3.79,4.45-4.89.34-.17.67-.37.99-.57,17.61-10.44,35.22-20.88,52.82-31.32.66-.39,1.31-.78,1.95-1.19,1.49-.97,2.22-2.31,2.29-4.01.08-1.95.22-3.89.35-5.83.2-3.04.46-6.08.59-9.12.41-9.74.76-19.48,1.14-29.23.06-1.46.12-2.92.2-4.38.04-.73.12-1.46.18-2.19.18-2.03,1.11-3.74,2.65-5.15.83-.76,1.73-1.47,2.62-2.17,11.71-9.22,23.42-18.43,35.13-27.64.59-.47,1.19-.94,1.75-1.45,1.47-1.33,2.25-2.95,2.19-4.89-.03-.97-.06-1.95-.13-2.92-.12-1.46-.32-2.91-.42-4.37-.55-8.39-1.11-16.78-1.6-25.18-.12-2.09-.47-4.11-1.21-6.08-2.71-7.23-5.41-14.47-8.11-21.7-.21-.57-.48-1.13-.66-1.72-.62-1.96-.51-3.85.73-5.6.36-.51.72-1.01,1.07-1.52,8.24-11.8,16.49-23.61,24.73-35.41,2.63-3.77,5.24-7.54,7.83-11.33.42-.61.74-1.28,1.08-1.93.18-.34-.02-1.12-.35-1.35-1.15-.78-2.29-1.58-3.49-2.28-12.74-7.44-25.49-14.87-38.24-22.29-.77-.45-1.54-.89-2.31-1.35-2.22-1.34-2.35-2.56-1.53-4.64,2.33-5.94,4.54-11.91,6.8-17.88.17-.46.32-.93.53-1.37.47-1.03,1.17-1.9,2.16-2.53.75-.48,1.52-.92,2.29-1.37,3.96-2.3,7.9-4.63,11.89-6.87,2.29-1.29,4.01-2.99,5.28-5.2,3.27-5.67,6.62-11.3,9.93-16.95.31-.53.6-1.08.79-1.66.18-.55-.16-.9-.72-1.08-.02-.25-.04-.49-.06-.74h.02Zm-424.69,244.4c.32-.29.69-.5.84-.8.4-.76.71-1.57,1.06-2.35,2.89-6.52,5.77-13.04,8.67-19.55.3-.67.66-1.31,1.06-1.93.07-.11.6-.14.66-.05.42.6.82,1.23,1.15,1.89,3.91,7.82,7.81,15.65,11.72,23.47,2.48,4.96,4.95,9.92,7.45,14.87.27.54.63,1.05,1.02,1.52.11.14.48.22.67.15.76-.25,1.38-.72,1.69-1.42.35-.78.63-1.6.82-2.42,1.76-7.49,3.4-15.01,5.5-22.42,1.01-3.55,1.55-7.16,1.54-10.83,0-2.07.01-4.15-.07-6.22-.22-5.72-.54-11.45-.72-17.17-.06-1.98-.39-3.88-1.04-5.73-.94-2.66-1.92-5.3-2.9-7.94-3.65-9.77-7.74-19.37-13.16-28.42-.51-.85-.9-1.76-1.41-2.6-1.31-2.18-1.8-4.52-1.82-7.01-.08-14.38,0-28.76.39-43.14.18-6.7.35-13.4.52-20.1.03-1.22,0-2.44.08-3.66.32-4.94,1.5-9.6,4.69-13.71,1.52-1.96,2.72-4.14,4.01-6.25,1.4-2.3,1.84-4.77,1.34-7.4-.25-1.31-.44-2.65-.49-3.98-.25-6.82-.95-13.62-1.46-20.42-.34-4.5-.79-8.99-1.19-13.48-.17-1.94-.35-3.88-.53-5.83-.05-.61-.12-1.21-.14-1.82-.05-1.4.44-2.65,1.44-3.68.7-.72,1.47-1.37,2.23-2.03,3.8-3.3,7.58-6.64,11.44-9.88,1.73-1.45,2.77-3.14,3.14-5.29.54-3.12,1.16-6.24,1.8-9.34,1.76-8.61,3.6-17.2,5.3-25.82.49-2.49,1.56-4.55,3.34-6.44,4.21-4.46,8.27-9.05,12.43-13.55,1.57-1.69,2.56-3.58,3.12-5.78,2-7.94,4.12-15.85,6.2-23.76.28-1.06.54-2.13.85-3.19.65-2.21,2-3.94,4.08-5.14.66-.38,1.35-.73,2.01-1.1,5.52-3.16,11.03-6.34,16.57-9.47,2.23-1.26,3.32-2.99,3.06-5.45-.01-.12-.02-.24-.02-.36-.11-3.9-.22-7.8-.34-11.7-.06-1.95-.13-3.9-.22-5.85-.17-3.41-.43-6.81-.55-10.22-.28-8.41-.5-16.81-.74-25.22-.02-.61-.06-1.22-.18-1.81-.04-.2-.31-.48-.51-.5-.77-.09-1.54-.13-2.32-.1-4.39.14-8.79.36-13.18.43-17.19.28-34.39.51-51.58.75-18.23.25-36.46.22-54.69.6-17.97.38-35.94.56-53.91.81-10.73.15-21.46.26-32.19.39-.78,0-1.55,0-2.33,0-1.59,0-3.05-.45-4.42-1.18-.45-.24-.89-.49-1.34-.74-3.98-2.27-7.95-4.55-11.93-6.82-.77-.44-1.57-.85-2.36-1.25-.74-.37-1.5-.36-2.22.02-.67.36-1.34.74-1.96,1.16-3.77,2.57-7.59,5.09-11.27,7.76-2.36,1.71-4.9,2.6-7.85,2.66-3.49.07-6.98.25-10.47.37-7.88.28-15.76.55-23.64.81-1.05.03-2.04.22-3.01.59-.99.37-1.77.99-2.58,1.6-4.05,3.03-8.11,6.05-12.15,9.1-2.24,1.69-4.68,3.01-7.36,3.99-8.91,3.25-17.8,6.53-26.69,9.81-.59.22-1.14.55-1.71.84-.25.13-.37.78-.19.98.34.36.64.76,1.02,1.09,3.13,2.74,6.19,5.54,9.41,8.17,7.93,6.47,16.37,12.31,24.98,17.93,9.35,6.1,18.96,11.83,28.6,17.52,3.29,1.94,6.58,3.86,9.88,5.78,1.1.64,2.16,1.35,2.98,2.31,1.27,1.48,1.95,3.18,1.75,5.08-.57,5.37-6.47,8.21-11.17,5.91-1.03-.5-2.03-1.06-3.02-1.64-8.53-5.06-17.05-10.13-25.57-15.2-6.89-4.1-13.61-8.42-20.17-12.97-18.84-13.05-35.87-27.91-50.63-45.05-9.72-11.28-20.46-21.66-32.15-31.15-5.39-4.38-11.04-8.44-17.14-11.93-6.1-3.49-12.51-6.33-19.36-8.24-2.11-.59-4.23-1.12-6.44-1.24-.96-.05-1.49.28-1.66,1.13-.54,2.63-1.07,5.26-1.6,7.89-1.68,8.38-3.34,16.75-5.02,25.13-1.73,8.61-3.45,17.23-5.2,25.84-.36,1.79-.78,3.57-1.21,5.35-.04.16-.37.28-.59.36-.08.03-.28-.07-.33-.16-.83-1.51-1.68-3.01-2.46-4.54-8.77-17.24-17.52-34.49-26.29-51.73-.39-.76-.81-1.52-1.28-2.24-.09-.14-.52-.23-.68-.14-.44.23-.88.51-1.23.86-4.43,4.46-8.43,9.23-11.82,14.45-2.37,3.64-4.4,7.44-6.08,11.41-1.58,3.75-1.95,7.55-.69,11.44.3.93.61,1.86.96,2.78,4.65,12.15,9.72,24.13,15.47,35.85,12.04,24.56,26.72,47.56,45.36,68.23.67.74,1.32,1.51,1.84,2.35,1.96,3.14,1.15,6.97-1.96,9.11-.82.56-1.78.97-2.73,1.33-.83.32-1.73.5-2.6.7-8.66,1.97-17.32,3.93-25.97,5.91-.48.11-.95.33-1.39.55-.27.14-.32.43-.12.63.35.34.7.72,1.13.94,3.41,1.73,6.86,3.4,10.26,5.15,1.13.58,2.23,1.24,3.21,2.02,3.16,2.52,3.16,6.34,1.39,8.92-.62.91-1.39,1.76-2.19,2.55-7.44,7.37-13.66,15.57-18.93,24.44-8.29,13.94-13.95,28.75-16.91,44.49-.75,3.96-1.29,7.94-1.8,11.94-.5,3.88-.6,7.78-.44,11.68,0,.24.02.53.16.7.12.14.5.27.63.2.44-.24.84-.56,1.21-.89,5.73-5.11,11.46-10.22,17.19-15.33.84-.75,1.71-1.49,2.6-2.19.14-.11.47-.02.82-.02,0,.49.04.97,0,1.45-.23,2.3-.5,4.61-.73,6.91-.52,5.23-1.54,10.36-2.95,15.44-3.8,13.66-7.46,27.36-9.94,41.3-.68,3.84-1.32,7.69-1.91,11.55-.64,4.22-.91,8.48-1.24,12.74-.28,3.65-.24,7.31-.05,10.96,0,.15.34.3.55.41.07.04.27-.04.33-.13.35-.5.73-.98,1-1.52,1.34-2.63,2.6-5.31,3.99-7.92.93-1.74,1.98-3.42,3.07-5.07.97-1.45,2.22-2.69,3.62-3.79.91-.72,1.92-1.23,3.04-1.57,1.02-.31,2.02-.28,3.04.06,1.51.5,2.76,1.36,3.75,2.5,2.98,3.43,5.29,7.17,6.2,11.62.62,3.03.66,6.06.4,9.1-.22,2.55-.62,5.08-.87,7.63-.41,4.12-.94,8.25-1.12,12.38-.39,9.26-.51,18.51.49,27.76.82,7.53,2.14,14.97,4.21,22.27,1.67,5.89,3.93,11.6,6.69,17.11.27.54.68,1.02,1.08,1.48.08.09.53.04.62-.07.45-.59.88-1.2,1.23-1.84,3.47-6.26,6.93-12.53,10.39-18.79.54-.97,1.07-1.95,1.65-2.9.08-.13.41-.16.63-.17.09,0,.25.11.29.21.18.45.37.9.5,1.37,2.5,9.2,5.29,18.33,8.57,27.31,4.42,12.11,9.68,23.88,16.24,35.11,3.99,6.84,8.43,13.41,13.33,19.71.53.68,1.15,1.31,1.78,1.91.1.1.6.04.67-.08.66-1.04,1.32-2.09,1.88-3.17,2.89-5.58,5.74-11.18,8.62-16.77.39-.76.83-1.49,1.2-2.14.76-.1,1.11.24,1.46.62,2.79,3.04,5.61,6.06,8.38,9.12,2.77,3.07,5.69,5.99,8.8,8.75,9.52,8.46,19.77,16.07,30.5,23.12,15.71,10.32,32.09,19.6,48.99,28.07,26.94,13.5,54.82,25.05,83.43,35.03,14.66,5.11,29.58,9.44,44.75,13,.25.06.5.12.76.16.25.04.51.05.77.08.87.1,1.53-.51,1.39-1.3-.98-5.4-1.84-10.82-2.41-16.28-.79-7.55-.83-15.07.08-22.62.79-6.57,2.3-12.96,4.52-19.22,3.93-11.09,9.91-21.14,17.51-30.35,5.49-6.64,11.29-13.02,17.53-19.05.35-.34.6-.77.81-1.2.06-.13-.15-.54-.3-.58-.49-.12-1.01-.18-1.51-.17-5.43.14-10.86.33-16.28.45-1.8.04-3.62.16-5.39-.13-.17-.37-.26-.69,0-1.03,2.21-2.88,4.84-5.4,7.56-7.83,2.44-2.18,4.94-4.3,7.4-6.46.47-.41.9-.87,1.28-1.35.11-.14-.02-.45-.06-.79-1.54.08-3.09.14-4.63.23-5.81.34-11.61.82-17.42,1.02-16.03.54-32.06.54-48.09.02-1.29-.04-2.58-.1-3.87-.2-5.03-.35-10.05-.77-15.08-1.08-5.68-.35-11.32-1.04-16.95-1.76-5.63-.72-11.23-1.62-16.82-2.62-11.56-2.07-22.94-4.77-34.09-8.32-13.38-4.26-26.2-9.66-38.27-16.61-25.53-14.68-44.8-34.68-57.5-60.24-8.18-16.46-13.15-33.8-16.03-51.71-.76-4.7-1.43-9.41-1.82-14.15-.39-4.74-.94-9.47-1.16-14.21-.6-13.04-.48-26.08.04-39.11.19-4.63.5-9.25.84-13.87.33-4.38.76-8.74,1.17-13.11.18-1.94.46-3.87.66-5.81.13-1.21.25-2.43.28-3.64.07-3.04.16-2.93-3.19-2.96-.52,0-1.03-.01-1.55-.02-5.82-.08-11.63-.15-17.45-.24-.77-.01-1.54-.11-2.3-.22-.63-.09-1.21-.66-1.26-1.21-.06-.6-.11-1.21-.1-1.82.02-2.32.07-4.63.11-6.95.01-.85.02-1.71.06-2.56.06-1.23.55-1.68,1.94-1.74,1.03-.04,2.07-.05,3.1-.04,6.85.07,13.71.25,20.56.2,7.27-.06,14.44.8,21.6,1.84,5.49.8,10.96,1.73,16.44,2.54,5.87.86,11.73,1.78,17.55,2.92,13.3,2.6,26.28,6.2,38.97,10.79,23.08,8.35,44.35,19.74,64.03,33.79,19.55,13.96,37.2,29.85,53.46,47.13,11.94,12.69,23.05,25.99,33.55,39.75,15.72,20.6,29.93,42.09,43.09,64.21,3.6,6.06,7.08,12.18,10.62,18.26.68,1.16,1.22,2.41,2.27,3.42Zm-73.31,25.22s0-.06,0-.09c1.42,0,2.84.03,4.26,0,5.82-.15,11.63-.25,17.44-.52,5.94-.28,11.87-.69,17.8-1.12,6.57-.47,13.14-1.04,19.71-1.54,1.08-.08,2.01-.44,2.84-1.04,1.03-.75,1.9-1.65,2.57-2.71.35-.56.42-1.14.08-1.73-1.12-1.92-2.26-3.83-3.36-5.76-3.97-6.97-7.85-14-11.91-20.93-14.14-24.12-29.56-47.49-46.77-69.78-12.8-16.58-26.54-32.41-41.64-47.18-12.22-11.96-25.17-23.14-39.23-33.17-19.91-14.19-41.38-25.7-64.85-33.83-12.75-4.42-25.8-7.81-39.19-10-3.31-.54-6.62-1.07-9.93-1.59-5.61-.88-11.2-1.82-16.82-2.6-3.36-.47-3.53-.69-3.79,2.66-.14,1.82-.47,3.63-.64,5.45-.39,4.25-.7,8.5-1.09,12.75-.64,6.92-1.01,13.86-1.17,20.8-.31,13.04-.44,26.07.54,39.1.47,6.2,1.07,12.39,1.88,18.55.73,5.56,1.72,11.08,2.92,16.57,1.91,8.72,4.34,17.29,7.72,25.62,5.93,14.6,14.27,27.82,25.44,39.42,11.51,11.96,25.03,21.42,40.2,28.85,11.5,5.63,23.57,9.89,36.02,13.22,7.95,2.13,16,3.88,24.14,5.26,6.87,1.17,13.76,2.18,20.7,2.85,2.96.29,5.92.54,8.87.85,5.91.62,11.85.91,17.79,1.19,5.03.24,10.08.36,15.12.43,4.78.07,9.56.02,14.35.02Zm536.76-436.86c-.1-.61-.13-1.23-.31-1.8-.3-.93-.66-1.84-1.05-2.74-3.37-7.77-6.75-15.55-10.14-23.31-.49-1.12-1.07-2.21-1.63-3.31-.11-.21-.28-.43-.48-.55-.19-.11-.59-.18-.67-.09-1.01,1.1-2.04,2.19-2.93,3.38-9.58,12.71-19.08,25.47-28.06,38.56-.35.51-.7,1.02-1.07,1.52-1.2,1.62-2.67,2.97-4.45,4.01-.66.39-1.33.74-1.99,1.12-26.7,15.32-53.39,30.63-80.08,45.96-1.21.7-2.41,1.42-3.59,2.16-.87.55-1.07,1.42-.56,2.22.2.31.4.63.63.92,2.68,3.43,5.37,6.86,8.06,10.28.15.19.35.36.52.54.57.58,1.29.77,2.1.77,1.05,0,2.01-.34,3.01-.63,10.73-3.11,21.46-6.2,32.2-9.28,4.2-1.2,8.39-2.41,12.6-3.58,2.67-.74,4.97-2,6.78-4.02.58-.65,1.22-1.26,1.84-1.88,4.49-4.55,8.96-9.11,13.48-13.64,1.68-1.69,3.45-3.3,5.19-4.93.17-.16.44-.24.67-.33.05-.02.23.1.24.15.01.35.09.73-.03,1.04-2.66,6.73-5.34,13.45-8.04,20.16-1.42,3.54-3.3,6.87-5.45,10.07-1.11,1.64-2.26,3.26-3.43,4.87-9.04,12.47-18.08,24.94-27.12,37.41-.51.7-1.03,1.4-1.48,2.14-.56.9-.67,1.88-.04,2.77,1.21,1.72,2.45,3.43,3.78,5.07.88,1.08,2.13,1.74,3.48,2.24,2.66.99,5.45,1.49,8.21,2.09,1.05.23,2.07-.06,2.85-.81.99-.95,1.97-1.93,2.91-2.93,10.27-11.11,20.51-22.25,30.82-33.34,2.93-3.15,5.24-6.59,6.97-10.46,11.51-25.67,23.1-51.32,34.65-76.98.45-1.01.85-2.04,1.22-3.07.2-.57.28-1.18.42-1.79Zm-463.33,694.07c0-.92.01-1.89,0-2.86-.07-5.6-.16-11.2-.22-16.81-.11-10.23-.23-20.46-.29-30.69-.2-32.65-.38-65.29-.55-97.94-.1-18.27-.18-36.54-.26-54.82-.03-7.07-.06-14.13-.1-21.2,0-.61-.02-1.22-.1-1.82-.03-.19-.25-.41-.44-.5-.21-.09-.56-.14-.72-.04-.62.43-1.22.9-1.78,1.4-7.29,6.57-14.35,13.35-20.97,20.52-3.39,3.68-6.69,7.43-9.61,11.46-10.5,14.5-15.7,30.55-15.9,48.08-.07,6.36.66,12.65,1.73,18.9,1.61,9.38,3.89,18.62,6.69,27.75,3.05,9.94,6.6,19.73,10.4,29.43,9.02,23.08,19.51,45.59,30.32,67.96.21.44.43.89.74,1.27.28.34.67.16,1.07-.1Zm469.79-678.41c-.06-.48-.15-1.32-.31-2.14-.03-.14-.39-.25-.61-.32-.09-.03-.25.05-.34.11-.67.46-.83,1.2-1.13,1.86-7.44,16.45-14.86,32.9-22.29,49.36-3.38,7.5-6.86,14.96-10.1,22.52-1.53,3.55-3.57,6.68-6.26,9.55-10.52,11.22-20.92,22.54-31.36,33.83-.51.55-.97,1.13-1.43,1.72-.33.42-.14,1.35.32,1.66.52.36,1.04.72,1.59,1.03,1.78.99,3.57,1.96,5.35,2.94,6.13,3.38,12.24,6.77,18.38,10.14.88.49,1.83.87,2.76,1.28.38.17,1.15-.17,1.31-.54.14-.33.33-.66.41-1.01.44-1.9.83-3.81,1.27-5.71.99-4.28,2.06-8.54,2.97-12.83.85-3.98,2.38-7.66,4.52-11.19,8.56-14.17,17.02-28.39,25.51-42.6.63-1.06,1.27-2.12,1.82-3.22.61-1.21,1.09-2.46,1.25-3.82.51-4.35,1.06-8.7,1.61-13.05.32-2.54.67-5.07,1-7.61.42-3.26.84-6.52,1.25-9.79.42-3.38.86-6.77,1.24-10.15.44-3.87.82-7.75,1.26-12Z"/>
    <path class="cls-14" d="m884.47,664.69c.2-.15.38-.36.61-.43,6.01-1.76,12.01-3.51,18.03-5.24.48-.14,1.01-.11,1.52-.15.02.25.04.49.06.74-.83.32-1.65.67-2.5.95-4.99,1.62-9.98,3.23-14.97,4.83-.35.11-.76.08-1.14.11-.33-.64-1.01-.63-1.6-.8Z"/>
    <path class="cls-14" d="m904.65,658.87c.35-.56.92-.71,1.55-.72-.32.62-.84.85-1.55.72Z"/>
    <path class="cls-15" d="m158.23,593.38c-1.43-.68-2.58-1.24-3.73-1.78-9.27-4.41-17.99-9.59-25.78-16.1-5.64-4.71-10.6-9.99-14.83-15.87-.29-.4-.51-.84-.75-1.26-.18-.32.08-.83.42-.86,2.84-.25,5.68-.05,8.52.13,2.71.17,5.42.25,8.13.34.49.02.99-.13,1.53-.22,0-.7.09-1.3-.01-1.88-1.75-9.8-1.83-19.66-1.19-29.53.59-9.01,1.99-17.93,4.43-26.68,1.25-4.49,2.84-8.86,5.01-13.03.23-.43.5-.85.76-1.27.26-.41,1.03-.36,1.27.11.5.99.99,1.98,1.43,2.99,6.11,14.05,14.05,27.13,23.73,39.26,8.58,10.76,18.31,20.51,28.96,29.44,13.18,11.05,27.5,20.62,42.5,29.33,13.21,7.67,26.85,14.6,40.66,21.24,1.26.61,2.5,1.25,3.74,1.88.1.05.22.23.19.3-.07.19-.19.51-.33.52-1.8.23-3.61.15-5.41-.07-4.36-.53-8.72-1-13.11-1.26-5.29-.32-10.57-.74-15.86-1.1-1.03-.07-2.06-.14-3.1-.17-11.63-.34-23.25-.87-34.89-.99-14.61-.15-29.22-.41-43.82-.72-6.2-.13-12.4-.5-18.6-.76-1.3-.05-2.57-.25-3.79-.67-.08-.03-.17-.15-.19-.23-.02-.11-.02-.29.05-.35.37-.34.75-.66,1.16-.96,3.57-2.61,7.16-5.22,10.73-7.83.71-.52,1.49-.97,2.16-1.96Z"/>
    <path class="cls-4" d="m676.51,903.07c-7.74.23-16.39.53-25.05.14-5.57-.25-11.04-1.12-16.4-2.54-3.88-1.03-7.51-2.58-10.98-4.49-3.35-1.84-6.61-3.84-9.62-6.14-2.4-1.84-4.6-3.92-6.8-5.97-.62-.58-1.09-1.37-1.44-2.14-4.34-9.77-10.73-18.3-17.81-26.42-.98-1.13-1.98-2.25-2.99-3.36-3.46-3.81-6.63-7.81-9.07-12.27-1.22-2.23-3.02-3.08-5.57-3.23-5.43-.32-10.85-.29-16.27.17-1.42.12-2.83.21-4.25,0-.93-.14-1.24-.75-.79-1.58.59-1.1,1.46-1.99,2.35-2.89,3.53-3.57,7.19-7.01,11-10.3,11.92-10.29,24.15-20.23,36.66-29.88,8.12-6.27,16.94-11.56,26.04-16.47,22.64-12.22,45.69-23.71,68.98-34.79,7.26-3.45,14.55-6.86,21.83-10.27,5.32-2.49,10.51-5.21,15.67-7.99,6.39-3.44,12.9-6.68,19.74-9.27,4.55-1.73,9.12-3.44,13.95-4.36,3.42-.65,6.86-1.16,10.3-1.73,1.78-.29,3.57-.56,5.34-.87,7.13-1.24,14.35-1.71,21.57-2.16,5.16-.32,10.3-.77,15.46-1.17,5.67-.44,11.33-.89,17-1.32.21-.02.45.18.67.29.24.13.2.72-.05,1-.17.19-.32.38-.49.56-.18.18-.37.34-.56.51-2.92,2.59-5.84,5.17-8.76,7.76-.28.25-.57.5-.86.73-1.56,1.27-2.35,2.87-2.35,4.81,0,1.1-.04,2.19.01,3.29.21,4.63.44,9.25.66,13.88.05.97.11,1.95.11,2.92,0,2.45-.35,4.84-1.2,7.18-1.46,4.03-2.87,8.08-4.27,12.13-.97,2.79-2.27,5.43-3.88,7.94-.87,1.35-1.74,2.71-2.63,4.05-1.95,2.92-3.22,6.07-4.02,9.44-2.02,8.55-4.33,17.04-6.95,25.45-3.42,10.99-7.43,21.78-12.38,32.25-4.43,9.37-9.62,18.33-16.03,26.64-4.88,6.33-10.33,12.17-16.66,17.26-7.93,6.37-16.76,11.37-26.34,15.18-3.68,1.46-7.44,2.79-11.19,4.08-4.64,1.6-9.46,2.44-14.39,2.65-6.59.28-13.17.52-19.76.81-2.19.1-4.38.28-7.5.48Zm4.77-120.49l-.21-.23c-.25-1.11.11-2.18.35-3.24,1.64-7.26,3.33-14.52,5-21.77.55-2.38,1.1-4.76,1.63-7.14.1-.47.11-.96.16-1.45.03-.31-.52-.64-.84-.49-5.44,2.53-10.87,5.07-16.31,7.61-.11.05-.21.14-.32.2-.7.4-1.16.99-1.27,1.75-.22,1.45-.41,2.9-.55,4.35-.48,5.1-.93,10.19-1.38,15.29-.39,4.37-.73,8.74-1.13,13.11-.24,2.67-.53,5.34-.83,8-.07.6-.28,1.19-.45,1.77-.11.4-.86.66-1.27.41-1.17-.75-2.37-1.47-3.48-2.3-8.62-6.42-17.22-12.87-25.82-19.31-.51-.38-1.02-.75-1.54-1.11-1.39-.99-2.89-1.08-4.35-.24-2.98,1.7-5.91,3.49-8.88,5.21-1.24.72-2.2,1.66-2.89,2.88-1.88,3.35-4.24,6.4-6.55,9.49-1.64,2.19-3.29,4.37-4.87,6.6-1.44,2.02-2.72,4.14-3.78,6.37-1.92,4.06-3.04,8.28-2.78,12.76.1,1.83.14,3.66.32,5.47.66,6.92.91,13.86,1.17,20.8.09,2.31.05,4.63.06,6.95.02,2.56.21,5.1.73,7.63,2.23,11,8.05,19.94,17.37,26.82,3.67,2.71,7.75,4.85,11.92,6.79,1.61.75,3.34,1.3,5.07,1.77,6.87,1.86,13.93,2.61,21.04,2.87,9.98.36,19.89-.52,29.78-1.62,4.74-.53,9.46-1.25,14.19-1.9,7.57-1.05,14.88-2.98,21.93-5.81,16-6.42,29.57-15.87,40.56-28.59,4.5-5.21,8.47-10.75,12.04-16.56,5.45-8.88,9.96-18.17,13.86-27.73,5.75-14.12,10.03-28.66,13.86-43.32.84-3.22,1.08-6.51.22-9.78-.37-1.41-.85-2.81-1.35-4.19-.91-2.54-1.92-5.04-2.8-7.59-2.78-8.11-5.34-16.28-8.6-24.24-1.17-2.86-1.68-5.86-1.79-8.93-.07-2.19-.17-4.39-.35-6.57-.11-1.33-.4-2.65-.66-3.96-.11-.58-1.1-1.22-1.77-1.23-.38,0-.78-.01-1.15.06-1.39.27-2.78.55-4.16.85-4.53.99-9.03,2.06-13.58,2.96-2.8.55-5.49,1.33-8.11,2.38-2.61,1.05-5.25,2.04-7.86,3.09-7.97,3.2-15.65,6.95-23.06,11.18-.22.13-.41.3-.61.44-.59.42-.56,1.21.06,1.44,1.32.5,2.63,1,3.96,1.47,10.39,3.68,20.78,7.35,31.17,11.03.79.28,1.69.4,2.28,1.1-.7,1.02-1.91,1.25-2.93,1.72-19.34,8.98-38.69,17.93-58.05,26.87-6.84,3.16-13.71,6.26-20.56,9.4-.59.27-1.16.55-1.84.39Z"/>
    <path class="cls-5" d="m543.19,767.66c.03-.36.04-.85.1-1.34.79-6.79,1.01-13.61,1.4-20.43.37-6.45.84-12.89,1.26-19.34.02-.36.07-.73.09-1.09.36-6.21.74-12.41,1.07-18.62.3-5.72.51-11.45.82-17.17.29-5.35.65-10.71.99-16.06.01-.23.13-.47.24-.68.05-.1.18-.23.29-.23.24-.01.56-.04.7.09.36.33.66.72.94,1.12,6.29,9.23,12.56,18.46,18.85,27.68.56.82,1.13,1.64,1.81,2.36,1.06,1.13,2.42,1.81,4.07,1.86.26,0,.52.03.77.04,8.53.28,17.06.54,25.59.83,2.76.09,5.36-.42,7.92-1.42,9.3-3.63,18.64-7.19,27.96-10.78,38.95-15.02,77.9-30.03,116.84-45.06,9.91-3.83,19.8-7.73,29.71-11.55,4.51-1.74,4.14-1.94,1.65-5.23-6.69-8.82-13.38-17.64-20.1-26.45-1.66-2.18-3.44-4.27-5.1-6.45-1.28-1.68-2.61-3.33-3.39-5.3-.03-.07.05-.2.13-.26.09-.08.24-.17.33-.15.49.12,1,.23,1.45.44.93.43,1.85.87,2.72,1.38,16.88,9.93,33.76,19.87,50.63,29.8,5.48,3.23,10.95,6.47,16.44,9.68,3.56,2.09,3.79,2.13,2.92,6.14-.21.95-.31,1.92-.51,2.88-.22,1.07-.44,2.15-.76,3.2-.58,1.89-1.98,3.13-3.86,3.84-1.07.41-2.23.62-3.34.92-1.61.43-3.25.79-4.84,1.28-26.62,8.21-53.23,16.45-79.84,24.66-29.68,9.16-59.37,18.3-89.07,27.43-14.6,4.49-29.21,8.95-43.84,13.37-4.28,1.29-7.93,3.42-11.19,6.31-8.86,7.85-17.78,15.63-26.68,23.43-5.78,5.06-11.57,10.11-17.37,15.15-2.09,1.81-4.16,3.65-6.53,5.15-.4.25-1.11-.13-1.15-.6,0-.12-.04-.24-.05-.36-.01-.12-.02-.24-.04-.49Z"/>
    <path class="cls-12" d="m558.86,928.53c-.05-.66-.14-1.38-.14-2.1,0-16.57,0-33.15,0-49.72,0-.49.05-.97.09-1.46.02-.29.61-.61.88-.45.87.5,1.79.96,2.58,1.56,3.21,2.46,6.36,4.99,9.55,7.47,17.14,13.34,34.29,26.68,51.44,40.02.7.54,1.38,1.1,2.07,1.65,1.38,1.1,1.95,2.54,1.99,4.2.01.49-.04.97-.05,1.46-.11,3.9-.2,7.8-.32,11.69-.16,5.24-.35,10.47-.49,15.71-.11,4.14-.16,8.28-.25,12.43-.06,2.68-.11,5.36-.23,8.04-.05,1.09-.24,2.18-.39,3.26-.06.43-.69.75-1.19.64-.25-.06-.53-.05-.75-.16-1.72-.84-3.44-1.67-5.12-2.55-.6-.31-.87-.91-.84-1.55.04-.97.16-1.94.24-2.91.12-1.33.32-2.67.34-4,.08-4.63.08-9.26.17-13.89.03-1.71-.58-3.09-1.91-4.21-.67-.57-1.38-1.1-2.09-1.63-11.67-8.87-23.35-17.74-35.03-26.59-.9-.68-1.86-1.31-2.84-1.9-.8-.48-1.71-.57-2.6-.23-1.08.41-2.15.84-3.21,1.28-3.07,1.28-6.13,2.57-9.2,3.86-.84.35-1.7.58-2.71.08Z"/>
    <path class="cls-8" d="m884.47,664.69c.59.17,1.28.17,1.6.8-1.69.59-3.37,1.2-5.08,1.76-29.24,9.58-58.48,19.18-87.73,28.72-45.71,14.91-91.44,29.79-137.16,44.67-4.02,1.31-8.07,2.56-12.09,3.88-2.07.68-4.13,1.4-6.14,2.21-4.67,1.88-8.91,4.41-12.62,7.7-11.29,10.02-22.94,19.68-34.47,29.44-11.92,10.09-23.8,20.23-35.72,30.33-2.21,1.87-4.48,3.68-6.73,5.51-.57.04-1.13.09-1.7.13,9.32-9.3,18.62-18.61,27.98-27.88,16.84-16.69,33.71-33.34,50.56-50.01.45-.44.89-.89,1.33-1.33,1.72-1.72,3.78-2.91,6.19-3.59,3.83-1.07,7.65-2.2,11.47-3.31,20.85-6.02,41.69-12.06,62.55-18.07,28.38-8.18,56.76-16.34,85.15-24.5,28.51-8.2,57.01-16.41,85.52-24.6,1.35-.39,2.73-.69,4.1-1.03.49,0,.98,0,1.46-.01.65-.02,1.17-.27,1.51-.82h0Z"/>
    <path class="cls-11" d="m869.49,778.29c.3.08.81.16,1.27.36.16.07.32.47.24.6-.34.65-.73,1.28-1.16,1.88-6.12,8.3-12.25,16.6-18.38,24.9-2.73,3.7-5.46,7.4-8.17,11.11-.58.8-1.09,1.65-1.63,2.48-.46.71-.34,1.43.11,2.07.64.91,1.32,1.8,2.06,2.65,4.65,5.38,9.33,10.75,13.99,16.13.74.85,1.44,1.72,2.14,2.6.23.29.38.63.55.96.28.54-.18,1.36-.78,1.36-.64,0-1.3.05-1.93-.07-2.66-.5-5.31-1.05-7.96-1.58-8.08-1.62-16.16-3.23-24.24-4.86-2.02-.41-4.03-.84-6.03-1.31-1.26-.29-1.86-1.06-1.58-2.5.52-2.63,1.08-5.26,1.64-7.88,2.79-13.13,5.58-26.26,8.38-39.39.18-.84.4-1.66.64-2.48.23-.75.79-1.25,1.56-1.51.48-.16.98-.31,1.49-.38,4.22-.56,8.45-1.08,12.67-1.65,4.09-.55,8.18-1.14,12.26-1.72,3.83-.55,7.66-1.11,11.49-1.66.38-.05.77-.05,1.38-.09Z"/>
    <path class="cls-11" d="m715.05,985.82c-.31-.19-.72-.31-.92-.57-.95-1.3-1.92-2.6-2.75-3.96-3.36-5.47-6.68-10.97-10.01-16.46-.38-.63-.76-1.28-1.22-1.86-.9-1.13-2.12-1.75-3.63-1.84-.26-.01-.52,0-.77,0-5.17.16-10.33-.15-15.48-.54-1.55-.12-3.09-.18-4.63.13-1.14.23-1.85.84-1.99,1.95-.33,2.54-.61,5.08-.91,7.62-.07.6-.11,1.21-.23,1.81-.13.62-.51,1.16-1.13,1.39-1.8.66-3.62,1.27-5.45,1.85-.65.2-1.29,0-1.81-.41-.28-.22-.56-.53-.65-.85-.14-.46-.18-.97-.13-1.44.21-2.19.06-4.38-.14-6.56-.44-4.86-.43-9.73-.45-14.6-.01-4.87-.03-9.74-.03-14.61,0-.73.03-1.46.12-2.18.07-.64.89-1.36,1.59-1.42.9-.07,1.8-.12,2.7-.12,8.01-.06,16.01-.11,24.02-.18,1.81-.01,3.61-.09,5.42-.11.77,0,1.55.03,2.31.13.94.12,1.7.59,2.17,1.37.38.63.72,1.29,1.03,1.96,5.39,11.58,10.78,23.16,16.17,34.74.26.56.54,1.11.74,1.68.46,1.31.53,2.64.02,3.94-1.13,2.85-2.29,5.68-3.46,8.51-.09.22-.3.39-.5.62Z"/>
    <path class="cls-8" d="m824.54,873.52c6.34,0,12.67,0,19.01,0,.65,0,1.29,0,1.94.01.38,0,.75.02.96.42.14.26-.1.57-.61.71-3.59.99-7.18,1.98-10.78,2.97-3.22.89-6.43,1.81-9.66,2.66-1.61.42-3.21.88-4.88,1.16-3.58.59-6.48,2.34-8.75,5.01-.56.67-1.12,1.35-1.6,2.06-2.45,3.59-5.18,6.99-7.91,10.39-.54.68-1.09,1.36-1.62,2.05-.82,1.04-1.03,2.23-.8,3.47.13.72.37,1.41.58,2.12,1.47,4.92,2.95,9.84,4.4,14.77.13.44.15.94.11,1.4-.01.15-.38.37-.59.37-.21,0-.47-.17-.64-.33-1.57-1.45-3.19-2.85-4.68-4.37-4.91-5.01-9.78-10.07-14.66-15.11-.44-.45-.87-.9-1.27-1.38-.69-.83-.96-1.71-.3-2.69.55-.82,1.06-1.67,1.62-2.49,4.46-6.57,8.92-13.13,13.39-19.69.28-.41.56-.82.84-1.23,1.08-1.56,2.65-2.27,4.59-2.3,1.16-.02,2.33.01,3.49.02,5.95,0,11.89,0,17.84,0Z"/>
    <path class="cls-2" d="m645.72,976.58c-.28-15.95-.56-31.91-.84-47.86-.01-.85,0-1.7.06-2.55.07-1.09.86-1.51,1.83-.98,1.91,1.03,3.81,2.06,5.69,3.13,1.07.61,1.63,1.52,1.61,2.73-.02.97,0,1.95,0,2.92-.05,22.9-.12,45.8-.13,68.7,0,4.51-.36,9-.64,13.5-.04.71-.18,1.48-.51,2.11-1.55,2.94-3.17,5.85-4.79,8.75-.09.17-.51.37-.62.31-.3-.17-.52-.46-.75-.72-.07-.08-.06-.23-.07-.35,0-.24,0-.49,0-.73-.18-12.18-.34-24.36-.54-36.54-.07-4.14-.25-8.28-.38-12.42.02,0,.05,0,.07,0Z"/>
    <path class="cls-4" d="m646.3,521.66c-2.07-.05-4.1-.18-6.1-.84-5.78-1.91-10.45-6.87-10.94-13.77-.13-1.82-.08-3.64.39-5.44,1.61-6.14,5.85-9.82,12.14-11.61.25-.07.51-.08.76-.15,4.83-1.3,9.2-.23,13.25,2.32,2.61,1.65,4.72,3.77,6.14,6.45,2.13,4.03,2.37,8.18.72,12.38-1.69,4.31-4.87,7.4-9.2,9.44-2.25,1.06-4.66,1.37-7.16,1.21Zm-.25-14.77h0c3.88,0,7.75,0,11.63,0,.77,0,1.54-.07,2.31-.13.38-.03.91-.63.95-1.03.04-.49-.31-1.01-.72-1.18-.85-.36-1.75-.39-2.65-.39-3.23,0-6.46-.02-9.69,0-4.39.02-8.78.03-13.17.09-.89.01-1.78.18-2.67.32-.45.07-.86.68-.82,1.11.04.39.56,1.04.91,1.07.77.07,1.54.15,2.31.15,3.88.02,7.75,0,11.63,0Z"/>
    <path class="cls-6" d="m744.13,1006.33c-5.98-16.34-11.96-32.68-17.92-49.03-3.74-10.25-7.45-20.5-11.16-30.75-.42-1.15-.78-2.32-1.12-3.49-.2-.7.55-1.47,1.34-1.43.51.03,1.03.05,1.54.14,3.05.52,6.1,1.04,9.2,1.28,1.86.14,2.86,1.01,3.24,2.64.27,1.19.49,2.39.73,3.59,1.77,8.73,3.55,17.46,5.32,26.19,1.65,8.13,3.29,16.27,4.94,24.4,1.41,6.93,2.87,13.86,4.27,20.8.53,2.63.96,5.28,1.44,7.92-.34-.03-.68-.06-1.02-.08-.07-.21-.13-.41-.17-.63.19-.66-.07-1.16-.64-1.54Z"/>
    <path class="cls-9" d="m811.8,945.53c-7.47-4.79-14.6-10.02-21.83-15.12-13.74-9.69-27.45-19.43-41.16-29.15-.51-.36-1.02-.75-1.47-1.17-.14-.13-.16-.47-.09-.67.06-.19.27-.41.47-.46.36-.1.77-.13,1.14-.11.9.06,1.81.09,2.68.28,1.4.31,2.8.37,4.23.24,4.25-.39,7.85,1.01,10.98,3.63.48.4.95.83,1.4,1.26,12.51,11.78,25.39,23.2,38.19,34.7,2.24,2.01,4.52,3.99,6.79,5.98-.2.66-.81.53-1.32.59Z"/>
    <path class="cls-8" d="m876.44,747.87c-8.67,1.9-16.71,3.67-24.75,5.44-2.89.64-5.78,1.29-8.67,1.9-.75.16-1.53.24-2.29.3-1.13.08-1.95-.75-1.79-1.86.21-1.45.45-2.89.73-4.33,1.31-6.7,2.64-13.4,3.97-20.1.05-.23.16-.46.28-.67.05-.09.21-.15.33-.17.1-.02.27-.02.33.04.24.27.51.55.67.86,1.23,2.41,2.44,4.83,3.63,7.26.76,1.55,1.44,3.13,2.23,4.66.78,1.51,2.07,2.46,3.86,2.74,1.15.18,2.29.4,3.44.52,5.01.52,9.98,1.26,14.9,2.28.89.18,1.71.47,3.12,1.13Z"/>
    <path class="cls-9" d="m782.7,574.19c-.24,6.93-5.16,10.8-11.16,10.66-6.86-.16-11.19-5.07-10.94-10.91.3-6.96,6.21-9.9,11.62-9.92,5.48-.02,10.77,4.85,10.47,10.17Zm-12.22-.16h0c0,2.06-.01,4.11.01,6.17,0,.47.12.95.24,1.41.11.41.54.56.89.56.35,0,.77-.15.9-.55.11-.34.26-.69.26-1.04.02-4.24.01-8.47,0-12.71,0-.24.01-.53-.12-.71-.21-.28-.51-.53-.82-.69-.27-.14-1.16.39-1.2.67-.06.36-.14.72-.14,1.08-.01,1.94,0,3.87,0,5.81Z"/>
    <path class="cls-1" d="m864.46,865.75c-.68,0-1.2.06-1.7,0-3.72-.51-7.47-.51-11.21-.53-3.75-.02-7.49,0-11.24-.04-3.1-.02-6.19-.11-9.28-.46-1.92-.22-3.87-.24-5.8-.25-5.04-.03-10.07,0-15.11-.02-.77,0-1.54-.08-2.3-.19-.2-.03-.42-.28-.5-.48-.08-.2-.05-.48.04-.68.1-.21.29-.41.5-.54,1.28-.82,2.58-1.61,3.85-2.43,3.33-2.15,7.05-2.98,11.02-2.7,2.05.15,4.09.52,6.11.93,7.19,1.46,14.39,2.83,21.64,4.02,3.94.65,7.86,1.38,11.79,2.09.5.09,1,.24,1.44.46.28.14.44.48.75.84Z"/>
    <path class="cls-7" d="m779.69,948.26c-.34.46-.87.51-1.38.51-3.23.01-6.45-.14-9.66-.56-2.05-.27-4.11-.44-6.16-.63-.38-.03-.77.05-1.15.09-.59.07-1.27.6-1.34,1.16-.13.96-.23,1.93-.25,2.9-.04,2.43-.01,4.87-.03,7.3,0,.08-.17.18-.28.24-.08.04-.25.06-.29.02-.34-.36-.73-.7-.97-1.11-1.38-2.34-2.77-4.68-4.08-7.05-2.14-3.89-4.15-7.84-5.92-11.9-.25-.56-.48-1.13-.65-1.72-.09-.32-.06-.67-.02-1.01.03-.25.57-.33,1.04-.17,2.9,1.02,5.83,1.98,8.7,3.08,7.41,2.84,14.79,5.75,22.17,8.63.11.04.18.16.27.23Z"/>
    <path class="cls-2" d="m825.53,920.76c3.71-.13,8.51,3.13,8.53,7.79.01,4.47-4.34,8.4-8.97,8.25-5.36-.17-8.08-4.22-8.05-8.09.04-5.08,3.94-8.15,8.49-7.95Zm4.63,11.92c-.14-.41-.15-.83-.38-1.05-2.41-2.33-4.86-4.63-7.31-6.93-.17-.16-.44-.26-.68-.29-.23-.03-.53.02-.7.15-.17.12-.32.4-.3.59.05.34.14.75.38.98,2.32,2.25,4.67,4.48,7.03,6.68.24.23.68.4,1.01.39.31-.01.6-.31.96-.52Z"/>
    <path class="cls-3" d="m678.3,1026.87c.15,4.43-2.19,6.94-6.22,7.86-6.16,1.41-10.18-3.63-10.05-7.82.15-4.78,5.18-9.23,11.22-7.23,2.74.91,4.34,2.95,4.9,5.65.15.71.14,1.45.15,1.54Zm-8.92.17s0,0-.01,0c0,1.45-.02,2.9.01,4.35,0,.35.14.71.32,1.02.1.17.4.3.61.31.23.02.54-.06.69-.2.47-.45.6-1.06.58-1.67-.07-2.78-.14-5.56-.25-8.33-.01-.33-.23-.68-.44-.96-.11-.15-.43-.26-.64-.24-.2.02-.47.18-.56.34-.16.31-.3.68-.31,1.03-.03,1.45-.01,2.9-.01,4.35Z"/>
    <path class="cls-13" d="m850.27,650.28c-.15-4.15,3.32-7.62,7.98-7.56,3.92.05,8.21,2.94,8.22,7.56,0,4.69-3.86,7.78-8.41,7.76-4.98-.02-7.99-3.68-7.8-7.75Zm13.35.53c-.1-.24-.14-.57-.27-.6-3.12-.88-6.33-.86-9.54-.68-.59.03-1.05.49-.97.89.09.44.48.53.81.55,1.92.1,3.84.21,5.77.22,1.4,0,2.82,0,4.21-.37Z"/>
    <path class="cls-7" d="m592.91,756.36c-3.77.13-7.5-2.32-8.31-6.24-.37-1.77.02-3.4.89-4.91,1.46-2.53,3.84-3.89,6.83-4.2,3.75-.39,7.33,2.2,8.2,5.81.06.24.08.48.13.72.65,3.31-.6,6.16-4.39,8.08-1.06.54-2.17.71-3.34.74Zm-3.9-3.29c.24-.06.55-.05.7-.2,2.45-2.28,4.88-4.57,7.3-6.88.16-.15.24-.44.23-.66,0-.21-.13-.46-.3-.59-.17-.14-.46-.24-.69-.22-.23.02-.51.14-.68.3-2.36,2.2-4.71,4.4-7.04,6.62-.17.16-.31.41-.34.63-.03.21.06.48.2.65.14.17.41.24.62.35Z"/>
    <path class="cls-2" d="m612.41,1058.79c.21-.39.34-.74.55-1.04,3.11-4.44,6.23-8.88,9.35-13.31.21-.29.51-.53.79-.77.08-.07.28-.1.37-.05.21.11.44.24.55.42.12.2.16.46.16.7.01,3.63.01,7.26,0,10.89,0,.48-.04.97-.08,1.45-.09.95-.7,1.61-1.65,1.72-2.16.26-4.33.53-6.5.72-.88.08-1.79-.01-2.68-.12-.31-.04-.57-.38-.87-.6Z"/>
    <path class="cls-14" d="m841.71,769.9c.01-.25.21-.31.52-.37,1.26-.25,2.49-.62,3.76-.81,3.18-.47,6.36-.91,9.55-1.27,4.74-.53,9.51-.57,14.26-.17,1.53.13,3.04.5,4.54.82.49.1.9.42,1.01.88-5.98.22-11.96.36-17.94.68-5.23.28-10.46.46-15.7.24Z"/>
    <path class="cls-10" d="m811.8,945.53c.51-.06,1.11.08,1.32-.59,1.5.72,2.44,1.98,3.47,3.15.06.07.09.25.04.32-.16.24-.4.24-.65.07-1.43-.94-3.06-1.62-4.17-2.95Z"/>
    <path class="cls-10" d="m546.64,819.85c.57-.04,1.13-.09,1.7-.13-1.43,1.7-3.31,2.89-4.98,4.19-.49-.11-.57-.27-.37-.5,1.11-1.29,2.13-2.65,3.65-3.56Z"/>
    <path class="cls-14" d="m884.47,664.71c-.34.55-.86.79-1.51.82-.49.02-.97,0-1.46.01.87-.67,1.88-.87,2.97-.83Z"/>
    <path class="cls-10" d="m744.94,1008.5c.34.03.68.06,1.02.08.32.24.38.55.26.89-.11.32-.61.44-.88.23-.4-.32-.51-.73-.4-1.2Z"/>
    <path class="cls-10" d="m744.13,1006.33c.57.38.83.88.64,1.54-.56-.38-.78-.89-.64-1.54Z"/>
    <path class="cls-11" d="m369.37,790.4c.49.21.97.28,1.04.48.42,1.14.92,2.3,1.07,3.49.41,3.26.9,6.51.91,9.82.08,26.86-18,50.81-45.21,59.47-8.79,2.8-17.84,3.76-27.11,3.17-12.55-.8-24.03-4.51-34.28-11.32-14.49-9.62-23.45-22.72-26.94-39.13-.74-3.47-1.23-6.97-1.27-10.51-.17-14.53,4.44-27.59,13.94-39.03,9.92-11.95,22.88-19.5,38.58-22.82,2.61-.55,5.29-1.09,8.03-.73-.08.24-.08.57-.24.66-.43.25-.91.43-1.39.58-10.69,3.5-19.42,9.5-26.12,18.1-5.06,6.5-8.32,13.77-9.49,21.74-3.49,23.78,10.32,43.41,28.79,52.22,6.16,2.94,12.68,4.74,19.58,5.38,14.71,1.38,27.93-2.19,39.56-10.7,10.29-7.53,16.67-17.49,19.54-29.43.63-2.61,1.04-5.27,1.02-7.97,0-1.09,0-2.19,0-3.49Z"/>
    <path class="cls-11" d="m770.91,843.5c-.16.85-.84,1.25-1.4,1.72-4.57,3.77-9.15,7.52-13.73,11.28-7.79,6.4-15.58,12.8-23.38,19.19-1.06.87-2.19,1.67-3.31,2.48-.26.19-.54.07-.62-.23-.19-.7-.43-1.4-.52-2.11-.9-7.5-1.75-15-2.66-22.5-.88-7.25-1.84-14.5-2.73-21.75-.77-6.29-1.5-12.58-2.24-18.87-.04-.35.43-.73.73-.58,1.02.52,2.07.99,3.05,1.58,4.91,2.92,9.84,5.83,14.7,8.82,9.3,5.72,18.53,11.54,27.55,17.65,1.57,1.06,3.16,2.11,4.56,3.33Z"/>
    <path class="cls-11" d="m641.25,869.15c.66-.44,1.27-.88,1.91-1.27,18.32-11.18,36.64-22.36,54.96-33.53.65-.4,1.3-.8,1.97-1.17.74-.41,1.56.1,1.53.98-.05,1.21-.1,2.43-.26,3.64-.57,4.35-1.18,8.69-1.79,13.04-.66,4.71-1.33,9.41-2.01,14.11-.69,4.82-1.39,9.65-2.09,14.47-.25,1.69-.52,3.37-.8,5.05-.06.36-.21.7-.33,1.04-.12.34-.9.8-1.24.71-.75-.19-1.5-.36-2.23-.59-10.99-3.51-21.98-7.03-32.97-10.55-4.27-1.37-8.56-2.7-12.82-4.12-1.29-.43-2.75-.63-3.82-1.82Z"/>
    <path class="cls-11" d="m775.03,810.46c0,.37,0,.73,0,1.1.02,1.56-.94,2.18-2.57,1.58-1.68-.62-3.33-1.32-4.99-2-18.93-7.78-37.86-15.55-56.79-23.33-.71-.29-1.42-.59-2.09-.94-.15-.08-.21-.36-.25-.56-.02-.08.1-.24.2-.29.33-.17.67-.37,1.04-.45,6.26-1.48,12.5-3.04,18.78-4.41,8.93-1.95,17.89-3.79,26.84-5.62,4.04-.83,8.1-1.56,12.15-2.29,1.14-.2,2.31-.26,3.46-.37.46-.04,1.04.38,1.12.82.27,1.44.7,2.87.73,4.32.15,7.32.98,14.59,1.48,21.88.24,3.53.51,7.05.76,10.57.04,0,.08,0,.12,0Z"/>
    <path class="cls-15" d="m713.78,807.87c.11,6.83-4.47,15.71-13.96,18.77-11.3,3.64-24.44-1.61-27.65-14.28-3.07-12.11,5.62-21.21,14.32-23.59.74-.2,1.5-.35,2.26-.45,2.83-.38,5.68-.28,8.49.09,2.19.29,4.23,1.07,6.11,2.17,5.71,3.33,9.04,8.19,10.29,14.37.07.36.11.72.12,1.09.02.61,0,1.22,0,1.82Z"/>
    <path class="cls-11" d="m631.98,844.59c-.39-.37-.85-.66-1.07-1.05-.36-.64-.59-1.35-.83-2.04-5.23-15.03-10.45-30.06-15.67-45.09-.2-.57-.38-1.16-.49-1.75-.04-.2.09-.53.26-.63.16-.1.51-.07.72.02.7.31,1.39.64,2.06,1.01,8.14,4.48,16.27,8.97,24.4,13.46,8.91,4.92,17.83,9.84,26.73,14.76.89.49,1.77,1,2.63,1.53.71.44.61,1.35-.17,1.78-.33.18-.66.37-1.01.54-11.55,5.42-23.1,10.85-34.65,16.26-.92.43-1.88.78-2.92,1.21Z"/>
    <path class="cls-4" d="m681.28,782.58c-.05.1-.07.23-.15.3-.06.04-.25.02-.29-.03-.18-.26-.09-.43.23-.49,0,0,.21.22.21.22Z"/>
  </g>
  <text class="cls-18" transform="translate(432.03 10.04)"><tspan class="cls-19" x="0" y="0">h</tspan><tspan x="6.61" y="0">ttps://</tspan><tspan class="cls-24" x="36.85" y="0">f</tspan><tspan x="40.2" y="0">o</tspan><tspan class="cls-23" x="46.79" y="0">r</tspan><tspan x="50.76" y="0">m</tspan><tspan class="cls-25" x="60.77" y="0">s</tspan><tspan class="cls-20" x="65.39" y="0">.gle/</tspan><tspan class="cls-17" x="87.54" y="0">r</tspan><tspan class="cls-22" x="91.51" y="0">p6</tspan><tspan class="cls-16" x="104.49" y="0">B</tspan><tspan class="cls-22" x="110.82" y="0">Y6h4doLk</tspan><tspan class="cls-21" x="160.93" y="0">Z</tspan><tspan class="cls-20" x="167.31" y="0">Q2E8</tspan></text>
</svg>